<svg width="64" height="64" viewBox="0 0 96 96" fill="none" xmlns="http://www.w3.org/2000/svg">
  <path d="M34 8h28l3 6v15l-5 5v15c0 8 7 13 7 23 0 12-8 20-19 20S29 84 29 72c0-10 7-15 7-23V34l-5-5V14l3-6Z" stroke="#e85d04" stroke-width="5" stroke-linejoin="round"/>
  <path d="M31 18h34M31 28h34M42 41v22M54 41v22" stroke="#e85d04" stroke-width="5" stroke-linecap="round"/>
  <circle cx="48" cy="72" r="11" stroke="#e85d04" stroke-width="5"/>
  <circle cx="48" cy="23" r="7" stroke="#e85d04" stroke-width="4"/>
  <path d="M24 55v9M24 70v5M72 55v9M72 70v5" stroke="#e85d04" stroke-width="5" stroke-linecap="round"/>
</svg>
